<?xml version="1.0" encoding="utf-8"?>
<!-- Generator: Adobe Illustrator 19.2.1, SVG Export Plug-In . SVG Version: 6.00 Build 0)  -->
<svg version="1.1" id="Layer_1" xmlns="http://www.w3.org/2000/svg" xmlns:xlink="http://www.w3.org/1999/xlink" x="0px" y="0px"
	 viewBox="0 0 616.2 299.7" style="enable-background:new 0 0 616.2 299.7;" xml:space="preserve">
<style type="text/css">
	.st0{fill:#FFFFFF;}
	.st1{fill:#EA4864;}
</style>
<title>main_logo</title>
<rect x="440.2" y="218.9" class="st0" width="10.8" height="80.2"/>
<rect x="329.5" y="218.9" class="st0" width="10.8" height="80.2"/>
<path class="st0" d="M370,206.9h10.9l6.6-16.9h40.1l6.7,17.1l11.2-0.1l-32.2-80.8h-11.2L370,206.9z M391.2,179.9l16.2-40.7
	l16.2,40.7H391.2L391.2,179.9z"/>
<polygon class="st0" points="291,206.9 301.6,206.9 301.6,142.7 348.4,206.9 358.5,206.9 358.5,126.7 347.9,126.7 347.9,188.5 
	302.9,126.7 291,126.7 "/>
<rect x="261.1" y="126.7" class="st0" width="10.8" height="80.2"/>
<path class="st0" d="M232,206.9h11.7l-18.2-31.6c13.9-2.5,19.4-11.4,19.4-24.4c0-15.7-7.8-24.3-28.1-24.3H181v80.2h10.7V176h22.4
	L232,206.9z M191.8,166v-29.1h24.6c11.5,0,17.5,3,17.5,14.5s-6.3,14.6-17.2,14.6H191.8z"/>
<path class="st0" d="M94.1,206.9H105l6.6-16.9h40.1l6.6,16.9h11.3l-32.2-80.8h-11.1L94.1,206.9z M115.3,179.9l16.2-40.7l16.2,40.7
	H115.3z"/>
<polygon class="st0" points="0,206.9 10.5,206.9 10.5,145.1 36.6,206.9 45.7,206.9 71.9,145 71.9,206.9 82.6,206.9 82.6,126.7 
	68.5,126.7 41.4,191.5 14.3,126.7 0,126.7 "/>
<path class="st0" d="M169.4,218.9h-10.9l-6.6,16.9h-40.1l-6.6-16.9H94l32.2,80.8h11.1L169.4,218.9z M148.2,245.9L132,286.6
	l-16.2-40.7L148.2,245.9L148.2,245.9z"/>
<path class="st0" d="M188.8,218.9h-11.7l18.2,31.6c-13.9,2.5-19.4,11.4-19.4,24.4c0,15.7,7.8,24.3,28.1,24.3h35.7v-80.2h-10.7v30.9
	h-22.4L188.8,218.9z M229.1,259.8v29.1h-24.6c-11.5,0-17.5-3-17.5-14.5s6.3-14.6,17.2-14.6H229.1L229.1,259.8z"/>
<polygon class="st0" points="310.4,218.9 255.1,218.9 255.1,229 299.5,229 299.5,255.2 256.6,255.2 256.6,265.6 299.5,265.6 
	299.5,288.6 255.5,288.6 255.5,299.1 310.4,299.1 "/>
<polygon class="st0" points="395.8,218.4 384.7,218.4 352.6,299.1 364.1,299.1 390.1,232.1 416.3,299.1 427.8,299.1 "/>
<path class="st0" d="M480.2,218.9h-11.7l18.2,31.6c-13.9,2.5-19.4,11.4-19.4,24.4c0,15.7,7.8,24.3,28.1,24.3h35.7v-80.2h-10.7v30.9
	H498L480.2,218.9z M520.5,259.8v29.1h-24.6c-11.5,0-17.5-3-17.5-14.5s6.3-14.6,17.2-14.6H520.5L520.5,259.8z"/>
<path class="st0" d="M616.2,294.1c-44.6-15.1,0-146.9-107.7-106.4c-11.4-4.9,15.1-36.4,1.9-66.3C494.3,85,459.3,92.8,449,67.2
	c-0.7-2.4-1.2-4.9-1.2-7.4c-0.4-9.8,3.5-21.3,1.4-31.5c-2.1-10.5-12-19.6-25.9-24.2c-13.9-6.5-14.7-4.5-13.5,0
	c-6.3,3.6-10.5,8.4-15.6,12.3c-4.8,3.7-10.6,6.5-15.1,11.2c-1.7,1.8,1.8,4.1,5.7,5.8c3.6,7.6,18.8,3.1,23.4,8
	c7.9,5.7,2.6,19.6,1.2,41c-0.1,1-0.3,11.4-0.3,13.6c0.2,7.5,1.2,15,2.8,22.4c1,4.8-8.3,2.5-9.7,7.7h11.1c2.2-1.8,10-26.5,24.2-0.6
	c5.8,3.9,12.4,8.6,15.6,17.9c5,14.9-3.3,17.6-2.8,24.8c1.3,18.9,14.5,24.7,8.3,29.4c-5.1,4.7-25.7-0.1-24.3,9.6
	c9.7-0.6,25.8,0.4,35-0.1c4.9-0.3,9,0.3,8.5-2c3.7-2.3,19.1-7.5,26-6.2C587.7,173.3,514.3,307.2,616.2,294.1"/>
<path class="st0" d="M408.1,88.3c3.8,1.7,5.1,7.3,2.8,12.3s-7.3,7.8-11.1,6s-5.1-7.2-2.8-12.3S404.3,86.5,408.1,88.3"/>
<polygon class="st1" points="403.6,112.6 401.5,111.7 402.6,109.3 395.2,105.9 394.1,108.3 392,107.4 387.5,117.4 389.6,118.3 
	388.5,120.8 395.9,124.1 397,121.7 399.1,122.7 "/>
</svg>
