<svg id="Layer_1" data-name="Layer 1" xmlns="http://www.w3.org/2000/svg" width="47.21" height="47.28" viewBox="0 0 47.21 47.28"><defs><style>.cls-1{fill:#fff;}</style></defs><title>phone</title><path class="cls-1" d="M37.33,29.29A4.65,4.65,0,0,0,34,27.74a4.81,4.81,0,0,0-3.41,1.54l-3.15,3.14L26.63,32c-0.36-.18-0.7-0.35-1-0.53A34.27,34.27,0,0,1,17.43,24a20.22,20.22,0,0,1-2.69-4.25c0.82-.75,1.58-1.53,2.32-2.28l0.84-.85a4.58,4.58,0,0,0,0-6.91L15.16,7c-0.31-.31-0.63-0.63-0.93-0.95C13.63,5.44,13,4.8,12.36,4.2A4.72,4.72,0,0,0,9,2.73,4.89,4.89,0,0,0,5.62,4.2l0,0L2.21,7.64A7.3,7.3,0,0,0,0,12.29a17.49,17.49,0,0,0,1.28,7.4A43,43,0,0,0,9,32.42,47,47,0,0,0,24.59,44.67a24.36,24.36,0,0,0,8.78,2.59l0.63,0a7.52,7.52,0,0,0,5.76-2.47l0,0A22.69,22.69,0,0,1,41.55,43c0.43-.41.87-0.84,1.3-1.29a5,5,0,0,0,1.51-3.45,4.8,4.8,0,0,0-1.54-3.42ZM40.91,39.8h0c-0.39.42-.79,0.8-1.22,1.22a26.22,26.22,0,0,0-1.93,2A4.81,4.81,0,0,1,34,44.6H33.55a21.64,21.64,0,0,1-7.78-2.34A44.33,44.33,0,0,1,11,30.72a40.51,40.51,0,0,1-7.19-12A14.25,14.25,0,0,1,2.74,12.5a4.58,4.58,0,0,1,1.38-3l3.4-3.4A2.27,2.27,0,0,1,9,5.43a2.13,2.13,0,0,1,1.46.7l0,0c0.61,0.57,1.19,1.16,1.8,1.79l0.95,1L16,11.64a1.9,1.9,0,0,1,0,3.09c-0.29.29-.57,0.58-0.86,0.86-0.84.86-1.64,1.66-2.5,2.44a0.23,0.23,0,0,0,0,0,2,2,0,0,0-.52,2.27l0,0.09a21.87,21.87,0,0,0,3.22,5.26h0a36.63,36.63,0,0,0,8.86,8.06,13.62,13.62,0,0,0,1.23.67c0.36,0.18.7,0.35,1,.53L26.52,35a2.16,2.16,0,0,0,1,.25A2.13,2.13,0,0,0,29,34.59l3.41-3.41a2.26,2.26,0,0,1,1.51-.75,2,2,0,0,1,1.44.73l0,0,5.5,5.5A2,2,0,0,1,40.91,39.8Z"/><path class="cls-1" d="M25.52,11.25A12.84,12.84,0,0,1,36,21.71a1.34,1.34,0,0,0,1.33,1.12l0.23,0a1.35,1.35,0,0,0,1.11-1.56A15.53,15.53,0,0,0,26,8.59a1.35,1.35,0,0,0-1.56,1.1A1.33,1.33,0,0,0,25.52,11.25Z"/><path class="cls-1" d="M47.19,20.86A25.57,25.57,0,0,0,26.36,0a1.35,1.35,0,1,0-.44,2.65A22.84,22.84,0,0,1,44.54,21.3a1.34,1.34,0,0,0,1.33,1.12l0.23,0A1.32,1.32,0,0,0,47.19,20.86Z"/></svg>